:SAMPLES-PER-SECOND 30
:FULLY-SPECIFIED
:DEGREES
101
root  34.73571417 36.58653019 -13.87296662 10.21689892 -5.242640018 3.537279367
lowerback  -7.777130604 -0.2280062735 -0.9254229665
upperback  -3.921119928 0.2739900053 -4.163380146
thorax  0.3244650066 0.3148675561 -3.760819912
lowerneck  -8.733380318 -12.67790031 -8.654829979
upperneck  14.38449955 -17.61680031 11.60239983
head  7.678589821 -7.857989788 3.314019918
lclavicle  0 -4.497500157e-015 -2.743230041e-014
lhumerus  -47.68640137 30.89170074 62.22019958
lradius  0.001172923949 -6.507048965e-006 29.51119995
lwrist  3.192251654e-007 -3.790274832e-007 -29.25090027
lhand  -0 -37.03239822 -10.66709995
lfingers  90 7.125020027 -90
lthumb  94.87641191 -25.49836945 101.2098786
rclavicle  0 -4.497500157e-015 -2.743230041e-014
rhumerus  -10.99190044 -26.35499954 -40.7942009
rradius  -5.16745672e-007 2.214343908e-008 90.64330292
rwrist  0.0003490542294 -0.002273720223 -174.0449982
rhand  -1.770610053e-031 4.327320099 -6.290150166
rfingers  -90 -7.125020027 -90
rthumb  -84.45665499 -9.60138075 -59.80588321
rfemur  -10.53477192 14.18457222 12.23156929
rtibia  0.4718394279 -1.511278749 16.87064171
rfoot  2.25717473 -22.23737907 -33.45041275
rtoes  4.193254943 19.5730997 -102.3446009
lfemur  -1.700999618 -15.3894453 -23.55265999
ltibia  8.485536575 -0.604806304 3.975696802
lfoot  0.1906873733 -19.7301445 36.11216736
ltoes  -8.447187085 -18.19514739 -115.4358446
102
root  34.73391195 36.58373975 -13.87346673 10.20246315 -5.200356007 3.550241947
lowerback  -7.809689999 -0.2277918607 -0.9616262317
upperback  -3.922020197 0.280449003 -4.180990219
thorax  0.3380250037 0.3176510036 -3.758219957
lowerneck  -8.642310143 -12.76179981 -8.818929672
upperneck  14.4059 -17.74430084 11.78219986
head  7.716700077 -7.911660671 3.381500006
lclavicle  0 -4.497500157e-015 -2.743230041e-014
lhumerus  -47.67649841 30.89990044 62.18109894
lradius  0.001172923949 -6.507048965e-006 29.48469925
lwrist  3.192251654e-007 -3.790274832e-007 -29.24220085
lhand  -4.421191834e-031 -36.99560165 -10.65089989
lfingers  90 7.125020027 -90
lthumb  94.8556777 -25.48372326 101.1690269
rclavicle  0 -4.497500157e-015 -2.743230041e-014
rhumerus  -10.10150051 -26.60650063 -40.56779861
rradius  -5.16745672e-007 2.214343908e-008 89.80590057
rwrist  0.0003490542294 -0.002273720223 -173.7819977
rhand  -0 4.159510136 -6.280340195
rfingers  -90 -7.125020027 -90
rthumb  -84.4931427 -9.600629119 -59.96919122
rfemur  -10.60391617 14.18299103 12.25592232
rtibia  0.4216411114 -1.456686497 16.99402237
rfoot  2.256292105 -22.11866379 -33.39310837
rtoes  4.165945556 19.57871174 -102.2630938
lfemur  -1.674648285 -15.40745258 -23.5706749
ltibia  8.488278389 -0.6218701005 3.97262907
lfoot  0.1854818165 -19.70409012 36.07775879
ltoes  -8.460709945 -18.18903141 -115.4791589
103
root  34.73472896 36.57782247 -13.87546569 10.21222782 -5.180295944 3.561948299
lowerback  -7.817750454 -0.2269950211 -1.002179742
upperback  -3.926002502 0.2852030098 -4.183239937
thorax  0.3457219899 0.320957005 -3.737190008
lowerneck  -8.595930099 -12.82759953 -8.919429779
upperneck  14.44960022 -17.84160042 11.87119961
head  7.751930237 -7.953690052 3.412389994
lclavicle  0 -4.497500157e-015 -2.743230041e-014
lhumerus  -47.67079926 30.89430046 62.18379974
lradius  0.001172923949 -6.507048965e-006 29.47440147
lwrist  3.192251654e-007 -3.790274832e-007 -29.20009995
lhand  -4.422221343e-031 -37.01330185 -10.68669987
lfingers  90 7.125020027 -90
lthumb  94.87164137 -25.51828474 101.1911885
rclavicle  0 -4.497500157e-015 -2.743230041e-014
rhumerus  -9.135219574 -26.84589958 -40.34870148
rradius  -5.16745672e-007 2.214343908e-008 88.85739899
rwrist  0.0003490542294 -0.002273720223 -173.6040039
rhand  -0 4.011980057 -6.147079945
rfingers  -90 -7.125020027 -90
rthumb  -84.46208221 -9.708098384 -60.10224362
rfemur  -10.62698746 14.18638992 12.25662899
rtibia  0.4013975561 -1.459470034 17.01009178
rfoot  2.266796589 -22.09700584 -33.37624359
rtoes  4.170663246 19.57774502 -102.2771725
lfemur  -1.693506956 -15.49539089 -23.57690239
ltibia  8.494065285 -0.6817814112 3.968449593
lfoot  0.1664797664 -19.56174088 36.03573608
ltoes  -8.470198361 -18.18473285 -115.509559
104
root  34.73634795 36.57799969 -13.87955223 10.21361446 -5.17575264 3.579901457
lowerback  -7.841710091 -0.2186320424 -1.028030396
upperback  -3.929628134 0.3015010059 -4.198560238
thorax  0.3578279912 0.3303830028 -3.737240076
lowerneck  -8.554940224 -12.89260006 -8.979310036
upperneck  14.51729965 -17.94409943 11.96310043
head  7.793340206 -7.993200302 3.437249899
lclavicle  0 -4.497500157e-015 -2.743230041e-014
lhumerus  -47.70214081 30.95922089 62.11034775
lradius  0.001172923949 -6.507048965e-006 29.45602989
lwrist  3.192251654e-007 -3.790274832e-007 -29.32990265
lhand  -4.415797261e-031 -36.90259933 -10.62209988
lfingers  90 7.125020027 -90
lthumb  94.80606035 -25.4588941 101.0670124
rclavicle  0 -4.497500157e-015 -2.743230041e-014
rhumerus  -8.189210892 -27.05459785 -40.08319855
rradius  -5.16745672e-007 2.214343908e-008 87.86579895
rwrist  0.0003490542294 -0.002273720223 -173.7689972
rhand  -1.769975617e-031 4.046840191 -6.070370197
rfingers  -90 -7.125020027 -90
rthumb  -84.41459134 -9.77646336 -60.06154169
rfemur  -10.62862587 14.1845808 12.23701859
rtibia  0.391156584 -1.496880651 17.00872993
rfoot  2.24312973 -22.16299438 -33.42802811
rtoes  4.200275841 19.57165068 -102.365559
lfemur  -1.694470406 -15.49380398 -23.59256172
ltibia  8.499377251 -0.6627491117 3.953873634
lfoot  0.190671742 -19.61902618 36.07149506
ltoes  -8.449040587 -18.19430982 -115.4417806
